<?xml version="1.0" encoding="utf-8" standalone="no"?>
<!DOCTYPE svg PUBLIC "-//W3C//DTD SVG 1.1//EN"
  "http://www.w3.org/Graphics/SVG/1.1/DTD/svg11.dtd">
<svg xmlns:xlink="http://www.w3.org/1999/xlink" width="856.370625pt" height="426.27712pt" viewBox="0 0 856.370625 426.27712" xmlns="http://www.w3.org/2000/svg" version="1.1">
 <metadata>
  <rdf:RDF xmlns:dc="http://purl.org/dc/elements/1.1/" xmlns:cc="http://creativecommons.org/ns#" xmlns:rdf="http://www.w3.org/1999/02/22-rdf-syntax-ns#">
   <cc:Work>
    <dc:type rdf:resource="http://purl.org/dc/dcmitype/StillImage"/>
    <dc:date>2026-03-13T18:57:55.353755</dc:date>
    <dc:format>image/svg+xml</dc:format>
    <dc:creator>
     <cc:Agent>
      <dc:title>Matplotlib v3.10.8, https://matplotlib.org/</dc:title>
     </cc:Agent>
    </dc:creator>
   </cc:Work>
  </rdf:RDF>
 </metadata>
 <defs>
  <style type="text/css">*{stroke-linejoin: round; stroke-linecap: butt}</style>
 </defs>
 <g id="figure_1">
  <g id="patch_1">
   <path d="M 0 426.27712 
L 856.370625 426.27712 
L 856.370625 0 
L 0 0 
z
" style="fill: #ffffff"/>
  </g>
  <g id="axes_1">
   <g id="patch_2">
    <path d="M 34.240625 360.734002 
L 849.170625 360.734002 
L 849.170625 33.12 
L 34.240625 33.12 
z
" style="fill: #ffffff"/>
   </g>
   <g id="patch_3">
    <path d="M 71.282898 360.734002 
L 96.610947 360.734002 
L 96.610947 323.914884 
L 71.282898 323.914884 
z
" clip-path="url(#pef163def0e)" style="fill: #2e7d32; opacity: 0.85"/>
   </g>
   <g id="patch_4">
    <path d="M 166.263084 360.734002 
L 191.591134 360.734002 
L 191.591134 323.998317 
L 166.263084 323.998317 
z
" clip-path="url(#pef163def0e)" style="fill: #2e7d32; opacity: 0.85"/>
   </g>
   <g id="patch_5">
    <path d="M 261.243271 360.734002 
L 286.57132 360.734002 
L 286.57132 324.008851 
L 261.243271 324.008851 
z
" clip-path="url(#pef163def0e)" style="fill: #2e7d32; opacity: 0.85"/>
   </g>
   <g id="patch_6">
    <path d="M 356.223457 360.734002 
L 381.551507 360.734002 
L 381.551507 323.285077 
L 356.223457 323.285077 
z
" clip-path="url(#pef163def0e)" style="fill: #2e7d32; opacity: 0.85"/>
   </g>
   <g id="patch_7">
    <path d="M 451.203644 360.734002 
L 476.531693 360.734002 
L 476.531693 325.097902 
L 451.203644 325.097902 
z
" clip-path="url(#pef163def0e)" style="fill: #2e7d32; opacity: 0.85"/>
   </g>
   <g id="patch_8">
    <path d="M 546.18383 360.734002 
L 571.51188 360.734002 
L 571.51188 325.006979 
L 546.18383 325.006979 
z
" clip-path="url(#pef163def0e)" style="fill: #2e7d32; opacity: 0.85"/>
   </g>
   <g id="patch_9">
    <path d="M 641.164017 360.734002 
L 666.492066 360.734002 
L 666.492066 321.286149 
L 641.164017 321.286149 
z
" clip-path="url(#pef163def0e)" style="fill: #2e7d32; opacity: 0.85"/>
   </g>
   <g id="patch_10">
    <path d="M 736.144203 360.734002 
L 761.472253 360.734002 
L 761.472253 321.395896 
L 736.144203 321.395896 
z
" clip-path="url(#pef163def0e)" style="fill: #2e7d32; opacity: 0.85"/>
   </g>
   <g id="patch_11">
    <path d="M 96.610947 360.734002 
L 121.938997 360.734002 
L 121.938997 322.420984 
L 96.610947 322.420984 
z
" clip-path="url(#pef163def0e)" style="fill: #2196f3; opacity: 0.85"/>
   </g>
   <g id="patch_12">
    <path d="M 191.591134 360.734002 
L 216.919184 360.734002 
L 216.919184 322.389608 
L 191.591134 322.389608 
z
" clip-path="url(#pef163def0e)" style="fill: #2196f3; opacity: 0.85"/>
   </g>
   <g id="patch_13">
    <path d="M 286.57132 360.734002 
L 311.89937 360.734002 
L 311.89937 323.248443 
L 286.57132 323.248443 
z
" clip-path="url(#pef163def0e)" style="fill: #2196f3; opacity: 0.85"/>
   </g>
   <g id="patch_14">
    <path d="M 381.551507 360.734002 
L 406.879557 360.734002 
L 406.879557 322.624449 
L 381.551507 322.624449 
z
" clip-path="url(#pef163def0e)" style="fill: #2196f3; opacity: 0.85"/>
   </g>
   <g id="patch_15">
    <path d="M 476.531693 360.734002 
L 501.859743 360.734002 
L 501.859743 330.578957 
L 476.531693 330.578957 
z
" clip-path="url(#pef163def0e)" style="fill: #2196f3; opacity: 0.85"/>
   </g>
   <g id="patch_16">
    <path d="M 571.51188 360.734002 
L 596.83993 360.734002 
L 596.83993 330.440273 
L 571.51188 330.440273 
z
" clip-path="url(#pef163def0e)" style="fill: #2196f3; opacity: 0.85"/>
   </g>
   <g id="patch_17">
    <path d="M 666.492066 360.734002 
L 691.820116 360.734002 
L 691.820116 55.73022 
L 666.492066 55.73022 
z
" clip-path="url(#pef163def0e)" style="fill: #2196f3; opacity: 0.85"/>
   </g>
   <g id="patch_18">
    <path d="M 761.472253 360.734002 
L 786.800303 360.734002 
L 786.800303 48.720667 
L 761.472253 48.720667 
z
" clip-path="url(#pef163def0e)" style="fill: #2196f3; opacity: 0.85"/>
   </g>
   <g id="patch_19">
    <path d="M 121.938997 360.734002 
L 147.267047 360.734002 
L 147.267047 321.595364 
L 121.938997 321.595364 
z
" clip-path="url(#pef163def0e)" style="fill: #0d47a1; opacity: 0.85"/>
   </g>
   <g id="patch_20">
    <path d="M 216.919184 360.734002 
L 242.247233 360.734002 
L 242.247233 321.707678 
L 216.919184 321.707678 
z
" clip-path="url(#pef163def0e)" style="fill: #0d47a1; opacity: 0.85"/>
   </g>
   <g id="patch_21">
    <path d="M 311.89937 360.734002 
L 337.22742 360.734002 
L 337.22742 322.804826 
L 311.89937 322.804826 
z
" clip-path="url(#pef163def0e)" style="fill: #0d47a1; opacity: 0.85"/>
   </g>
   <g id="patch_22">
    <path d="M 406.879557 360.734002 
L 432.207606 360.734002 
L 432.207606 322.779126 
L 406.879557 322.779126 
z
" clip-path="url(#pef163def0e)" style="fill: #0d47a1; opacity: 0.85"/>
   </g>
   <g id="patch_23">
    <path d="M 501.859743 360.734002 
L 527.187793 360.734002 
L 527.187793 328.897613 
L 501.859743 328.897613 
z
" clip-path="url(#pef163def0e)" style="fill: #0d47a1; opacity: 0.85"/>
   </g>
   <g id="patch_24">
    <path d="M 596.83993 360.734002 
L 622.167979 360.734002 
L 622.167979 328.073295 
L 596.83993 328.073295 
z
" clip-path="url(#pef163def0e)" style="fill: #0d47a1; opacity: 0.85"/>
   </g>
   <g id="patch_25">
    <path d="M 691.820116 360.734002 
L 717.148166 360.734002 
L 717.148166 117.110759 
L 691.820116 117.110759 
z
" clip-path="url(#pef163def0e)" style="fill: #0d47a1; opacity: 0.85"/>
   </g>
   <g id="patch_26">
    <path d="M 786.800303 360.734002 
L 812.128352 360.734002 
L 812.128352 113.551372 
L 786.800303 113.551372 
z
" clip-path="url(#pef163def0e)" style="fill: #0d47a1; opacity: 0.85"/>
   </g>
   <g id="matplotlib.axis_1">
    <g id="xtick_1">
     <g id="line2d_1">
      <defs>
       <path id="mcecd3328ed" d="M 0 0 
L 0 3.5 
" style="stroke: #000000; stroke-width: 0.8"/>
      </defs>
      <g>
       <use xlink:href="#mcecd3328ed" x="109.274972" y="360.734002" style="stroke: #000000; stroke-width: 0.8"/>
      </g>
     </g>
     <g id="text_1">
      <!-- horner C++17 -->
      <g transform="translate(51.722567 406.343976) rotate(-30) scale(0.09 -0.09)">
       <defs>
        <path id="DejaVuSans-68" d="M 3513 2113 
L 3513 0 
L 2938 0 
L 2938 2094 
Q 2938 2591 2744 2837 
Q 2550 3084 2163 3084 
Q 1697 3084 1428 2787 
Q 1159 2491 1159 1978 
L 1159 0 
L 581 0 
L 581 4863 
L 1159 4863 
L 1159 2956 
Q 1366 3272 1645 3428 
Q 1925 3584 2291 3584 
Q 2894 3584 3203 3211 
Q 3513 2838 3513 2113 
z
" transform="scale(0.015625)"/>
        <path id="DejaVuSans-6f" d="M 1959 3097 
Q 1497 3097 1228 2736 
Q 959 2375 959 1747 
Q 959 1119 1226 758 
Q 1494 397 1959 397 
Q 2419 397 2687 759 
Q 2956 1122 2956 1747 
Q 2956 2369 2687 2733 
Q 2419 3097 1959 3097 
z
M 1959 3584 
Q 2709 3584 3137 3096 
Q 3566 2609 3566 1747 
Q 3566 888 3137 398 
Q 2709 -91 1959 -91 
Q 1206 -91 779 398 
Q 353 888 353 1747 
Q 353 2609 779 3096 
Q 1206 3584 1959 3584 
z
" transform="scale(0.015625)"/>
        <path id="DejaVuSans-72" d="M 2631 2963 
Q 2534 3019 2420 3045 
Q 2306 3072 2169 3072 
Q 1681 3072 1420 2755 
Q 1159 2438 1159 1844 
L 1159 0 
L 581 0 
L 581 3500 
L 1159 3500 
L 1159 2956 
Q 1341 3275 1631 3429 
Q 1922 3584 2338 3584 
Q 2397 3584 2469 3576 
Q 2541 3569 2628 3553 
L 2631 2963 
z
" transform="scale(0.015625)"/>
        <path id="DejaVuSans-6e" d="M 3513 2113 
L 3513 0 
L 2938 0 
L 2938 2094 
Q 2938 2591 2744 2837 
Q 2550 3084 2163 3084 
Q 1697 3084 1428 2787 
Q 1159 2491 1159 1978 
L 1159 0 
L 581 0 
L 581 3500 
L 1159 3500 
L 1159 2956 
Q 1366 3272 1645 3428 
Q 1925 3584 2291 3584 
Q 2894 3584 3203 3211 
Q 3513 2838 3513 2113 
z
" transform="scale(0.015625)"/>
        <path id="DejaVuSans-65" d="M 3597 1894 
L 3597 1613 
L 953 1613 
Q 991 1019 1311 708 
Q 1631 397 2203 397 
Q 2534 397 2845 478 
Q 3156 559 3463 722 
L 3463 178 
Q 3153 47 2828 -22 
Q 2503 -91 2169 -91 
Q 1331 -91 842 396 
Q 353 884 353 1716 
Q 353 2575 817 3079 
Q 1281 3584 2069 3584 
Q 2775 3584 3186 3129 
Q 3597 2675 3597 1894 
z
M 3022 2063 
Q 3016 2534 2758 2815 
Q 2500 3097 2075 3097 
Q 1594 3097 1305 2825 
Q 1016 2553 972 2059 
L 3022 2063 
z
" transform="scale(0.015625)"/>
        <path id="DejaVuSans-20" transform="scale(0.015625)"/>
        <path id="DejaVuSans-43" d="M 4122 4306 
L 4122 3641 
Q 3803 3938 3442 4084 
Q 3081 4231 2675 4231 
Q 1875 4231 1450 3742 
Q 1025 3253 1025 2328 
Q 1025 1406 1450 917 
Q 1875 428 2675 428 
Q 3081 428 3442 575 
Q 3803 722 4122 1019 
L 4122 359 
Q 3791 134 3420 21 
Q 3050 -91 2638 -91 
Q 1578 -91 968 557 
Q 359 1206 359 2328 
Q 359 3453 968 4101 
Q 1578 4750 2638 4750 
Q 3056 4750 3426 4639 
Q 3797 4528 4122 4306 
z
" transform="scale(0.015625)"/>
        <path id="DejaVuSans-2b" d="M 2944 4013 
L 2944 2272 
L 4684 2272 
L 4684 1741 
L 2944 1741 
L 2944 0 
L 2419 0 
L 2419 1741 
L 678 1741 
L 678 2272 
L 2419 2272 
L 2419 4013 
L 2944 4013 
z
" transform="scale(0.015625)"/>
        <path id="DejaVuSans-31" d="M 794 531 
L 1825 531 
L 1825 4091 
L 703 3866 
L 703 4441 
L 1819 4666 
L 2450 4666 
L 2450 531 
L 3481 531 
L 3481 0 
L 794 0 
L 794 531 
z
" transform="scale(0.015625)"/>
        <path id="DejaVuSans-37" d="M 525 4666 
L 3525 4666 
L 3525 4397 
L 1831 0 
L 1172 0 
L 2766 4134 
L 525 4134 
L 525 4666 
z
" transform="scale(0.015625)"/>
       </defs>
       <use xlink:href="#DejaVuSans-68"/>
       <use xlink:href="#DejaVuSans-6f" transform="translate(63.378906 0)"/>
       <use xlink:href="#DejaVuSans-72" transform="translate(124.560547 0)"/>
       <use xlink:href="#DejaVuSans-6e" transform="translate(163.923828 0)"/>
       <use xlink:href="#DejaVuSans-65" transform="translate(227.302734 0)"/>
       <use xlink:href="#DejaVuSans-72" transform="translate(288.826172 0)"/>
       <use xlink:href="#DejaVuSans-20" transform="translate(329.939453 0)"/>
       <use xlink:href="#DejaVuSans-43" transform="translate(361.726562 0)"/>
       <use xlink:href="#DejaVuSans-2b" transform="translate(431.550781 0)"/>
       <use xlink:href="#DejaVuSans-2b" transform="translate(515.339844 0)"/>
       <use xlink:href="#DejaVuSans-31" transform="translate(599.128906 0)"/>
       <use xlink:href="#DejaVuSans-37" transform="translate(662.751953 0)"/>
      </g>
     </g>
    </g>
    <g id="xtick_2">
     <g id="line2d_2">
      <g>
       <use xlink:href="#mcecd3328ed" x="204.255159" y="360.734002" style="stroke: #000000; stroke-width: 0.8"/>
      </g>
     </g>
     <g id="text_2">
      <!-- horner C++20 -->
      <g transform="translate(146.702753 406.343976) rotate(-30) scale(0.09 -0.09)">
       <defs>
        <path id="DejaVuSans-32" d="M 1228 531 
L 3431 531 
L 3431 0 
L 469 0 
L 469 531 
Q 828 903 1448 1529 
Q 2069 2156 2228 2338 
Q 2531 2678 2651 2914 
Q 2772 3150 2772 3378 
Q 2772 3750 2511 3984 
Q 2250 4219 1831 4219 
Q 1534 4219 1204 4116 
Q 875 4013 500 3803 
L 500 4441 
Q 881 4594 1212 4672 
Q 1544 4750 1819 4750 
Q 2544 4750 2975 4387 
Q 3406 4025 3406 3419 
Q 3406 3131 3298 2873 
Q 3191 2616 2906 2266 
Q 2828 2175 2409 1742 
Q 1991 1309 1228 531 
z
" transform="scale(0.015625)"/>
        <path id="DejaVuSans-30" d="M 2034 4250 
Q 1547 4250 1301 3770 
Q 1056 3291 1056 2328 
Q 1056 1369 1301 889 
Q 1547 409 2034 409 
Q 2525 409 2770 889 
Q 3016 1369 3016 2328 
Q 3016 3291 2770 3770 
Q 2525 4250 2034 4250 
z
M 2034 4750 
Q 2819 4750 3233 4129 
Q 3647 3509 3647 2328 
Q 3647 1150 3233 529 
Q 2819 -91 2034 -91 
Q 1250 -91 836 529 
Q 422 1150 422 2328 
Q 422 3509 836 4129 
Q 1250 4750 2034 4750 
z
" transform="scale(0.015625)"/>
       </defs>
       <use xlink:href="#DejaVuSans-68"/>
       <use xlink:href="#DejaVuSans-6f" transform="translate(63.378906 0)"/>
       <use xlink:href="#DejaVuSans-72" transform="translate(124.560547 0)"/>
       <use xlink:href="#DejaVuSans-6e" transform="translate(163.923828 0)"/>
       <use xlink:href="#DejaVuSans-65" transform="translate(227.302734 0)"/>
       <use xlink:href="#DejaVuSans-72" transform="translate(288.826172 0)"/>
       <use xlink:href="#DejaVuSans-20" transform="translate(329.939453 0)"/>
       <use xlink:href="#DejaVuSans-43" transform="translate(361.726562 0)"/>
       <use xlink:href="#DejaVuSans-2b" transform="translate(431.550781 0)"/>
       <use xlink:href="#DejaVuSans-2b" transform="translate(515.339844 0)"/>
       <use xlink:href="#DejaVuSans-32" transform="translate(599.128906 0)"/>
       <use xlink:href="#DejaVuSans-30" transform="translate(662.751953 0)"/>
      </g>
     </g>
    </g>
    <g id="xtick_3">
     <g id="line2d_3">
      <g>
       <use xlink:href="#mcecd3328ed" x="299.235345" y="360.734002" style="stroke: #000000; stroke-width: 0.8"/>
      </g>
     </g>
     <g id="text_3">
      <!-- bench1D C++17 -->
      <g transform="translate(232.529593 411.628664) rotate(-30) scale(0.09 -0.09)">
       <defs>
        <path id="DejaVuSans-62" d="M 3116 1747 
Q 3116 2381 2855 2742 
Q 2594 3103 2138 3103 
Q 1681 3103 1420 2742 
Q 1159 2381 1159 1747 
Q 1159 1113 1420 752 
Q 1681 391 2138 391 
Q 2594 391 2855 752 
Q 3116 1113 3116 1747 
z
M 1159 2969 
Q 1341 3281 1617 3432 
Q 1894 3584 2278 3584 
Q 2916 3584 3314 3078 
Q 3713 2572 3713 1747 
Q 3713 922 3314 415 
Q 2916 -91 2278 -91 
Q 1894 -91 1617 61 
Q 1341 213 1159 525 
L 1159 0 
L 581 0 
L 581 4863 
L 1159 4863 
L 1159 2969 
z
" transform="scale(0.015625)"/>
        <path id="DejaVuSans-63" d="M 3122 3366 
L 3122 2828 
Q 2878 2963 2633 3030 
Q 2388 3097 2138 3097 
Q 1578 3097 1268 2742 
Q 959 2388 959 1747 
Q 959 1106 1268 751 
Q 1578 397 2138 397 
Q 2388 397 2633 464 
Q 2878 531 3122 666 
L 3122 134 
Q 2881 22 2623 -34 
Q 2366 -91 2075 -91 
Q 1284 -91 818 406 
Q 353 903 353 1747 
Q 353 2603 823 3093 
Q 1294 3584 2113 3584 
Q 2378 3584 2631 3529 
Q 2884 3475 3122 3366 
z
" transform="scale(0.015625)"/>
        <path id="DejaVuSans-44" d="M 1259 4147 
L 1259 519 
L 2022 519 
Q 2988 519 3436 956 
Q 3884 1394 3884 2338 
Q 3884 3275 3436 3711 
Q 2988 4147 2022 4147 
L 1259 4147 
z
M 628 4666 
L 1925 4666 
Q 3281 4666 3915 4102 
Q 4550 3538 4550 2338 
Q 4550 1131 3912 565 
Q 3275 0 1925 0 
L 628 0 
L 628 4666 
z
" transform="scale(0.015625)"/>
       </defs>
       <use xlink:href="#DejaVuSans-62"/>
       <use xlink:href="#DejaVuSans-65" transform="translate(63.476562 0)"/>
       <use xlink:href="#DejaVuSans-6e" transform="translate(125 0)"/>
       <use xlink:href="#DejaVuSans-63" transform="translate(188.378906 0)"/>
       <use xlink:href="#DejaVuSans-68" transform="translate(243.359375 0)"/>
       <use xlink:href="#DejaVuSans-31" transform="translate(306.738281 0)"/>
       <use xlink:href="#DejaVuSans-44" transform="translate(370.361328 0)"/>
       <use xlink:href="#DejaVuSans-20" transform="translate(447.363281 0)"/>
       <use xlink:href="#DejaVuSans-43" transform="translate(479.150391 0)"/>
       <use xlink:href="#DejaVuSans-2b" transform="translate(548.974609 0)"/>
       <use xlink:href="#DejaVuSans-2b" transform="translate(632.763672 0)"/>
       <use xlink:href="#DejaVuSans-31" transform="translate(716.552734 0)"/>
       <use xlink:href="#DejaVuSans-37" transform="translate(780.175781 0)"/>
      </g>
     </g>
    </g>
    <g id="xtick_4">
     <g id="line2d_4">
      <g>
       <use xlink:href="#mcecd3328ed" x="394.215532" y="360.734002" style="stroke: #000000; stroke-width: 0.8"/>
      </g>
     </g>
     <g id="text_4">
      <!-- bench1D C++20 -->
      <g transform="translate(327.509779 411.628664) rotate(-30) scale(0.09 -0.09)">
       <use xlink:href="#DejaVuSans-62"/>
       <use xlink:href="#DejaVuSans-65" transform="translate(63.476562 0)"/>
       <use xlink:href="#DejaVuSans-6e" transform="translate(125 0)"/>
       <use xlink:href="#DejaVuSans-63" transform="translate(188.378906 0)"/>
       <use xlink:href="#DejaVuSans-68" transform="translate(243.359375 0)"/>
       <use xlink:href="#DejaVuSans-31" transform="translate(306.738281 0)"/>
       <use xlink:href="#DejaVuSans-44" transform="translate(370.361328 0)"/>
       <use xlink:href="#DejaVuSans-20" transform="translate(447.363281 0)"/>
       <use xlink:href="#DejaVuSans-43" transform="translate(479.150391 0)"/>
       <use xlink:href="#DejaVuSans-2b" transform="translate(548.974609 0)"/>
       <use xlink:href="#DejaVuSans-2b" transform="translate(632.763672 0)"/>
       <use xlink:href="#DejaVuSans-32" transform="translate(716.552734 0)"/>
       <use xlink:href="#DejaVuSans-30" transform="translate(780.175781 0)"/>
      </g>
     </g>
    </g>
    <g id="xtick_5">
     <g id="line2d_5">
      <g>
       <use xlink:href="#mcecd3328ed" x="489.195718" y="360.734002" style="stroke: #000000; stroke-width: 0.8"/>
      </g>
     </g>
     <g id="text_5">
      <!-- benchMany C++17 -->
      <g transform="translate(412.396439 417.456164) rotate(-30) scale(0.09 -0.09)">
       <defs>
        <path id="DejaVuSans-4d" d="M 628 4666 
L 1569 4666 
L 2759 1491 
L 3956 4666 
L 4897 4666 
L 4897 0 
L 4281 0 
L 4281 4097 
L 3078 897 
L 2444 897 
L 1241 4097 
L 1241 0 
L 628 0 
L 628 4666 
z
" transform="scale(0.015625)"/>
        <path id="DejaVuSans-61" d="M 2194 1759 
Q 1497 1759 1228 1600 
Q 959 1441 959 1056 
Q 959 750 1161 570 
Q 1363 391 1709 391 
Q 2188 391 2477 730 
Q 2766 1069 2766 1631 
L 2766 1759 
L 2194 1759 
z
M 3341 1997 
L 3341 0 
L 2766 0 
L 2766 531 
Q 2569 213 2275 61 
Q 1981 -91 1556 -91 
Q 1019 -91 701 211 
Q 384 513 384 1019 
Q 384 1609 779 1909 
Q 1175 2209 1959 2209 
L 2766 2209 
L 2766 2266 
Q 2766 2663 2505 2880 
Q 2244 3097 1772 3097 
Q 1472 3097 1187 3025 
Q 903 2953 641 2809 
L 641 3341 
Q 956 3463 1253 3523 
Q 1550 3584 1831 3584 
Q 2591 3584 2966 3190 
Q 3341 2797 3341 1997 
z
" transform="scale(0.015625)"/>
        <path id="DejaVuSans-79" d="M 2059 -325 
Q 1816 -950 1584 -1140 
Q 1353 -1331 966 -1331 
L 506 -1331 
L 506 -850 
L 844 -850 
Q 1081 -850 1212 -737 
Q 1344 -625 1503 -206 
L 1606 56 
L 191 3500 
L 800 3500 
L 1894 763 
L 2988 3500 
L 3597 3500 
L 2059 -325 
z
" transform="scale(0.015625)"/>
       </defs>
       <use xlink:href="#DejaVuSans-62"/>
       <use xlink:href="#DejaVuSans-65" transform="translate(63.476562 0)"/>
       <use xlink:href="#DejaVuSans-6e" transform="translate(125 0)"/>
       <use xlink:href="#DejaVuSans-63" transform="translate(188.378906 0)"/>
       <use xlink:href="#DejaVuSans-68" transform="translate(243.359375 0)"/>
       <use xlink:href="#DejaVuSans-4d" transform="translate(306.738281 0)"/>
       <use xlink:href="#DejaVuSans-61" transform="translate(393.017578 0)"/>
       <use xlink:href="#DejaVuSans-6e" transform="translate(454.296875 0)"/>
       <use xlink:href="#DejaVuSans-79" transform="translate(517.675781 0)"/>
       <use xlink:href="#DejaVuSans-20" transform="translate(576.855469 0)"/>
       <use xlink:href="#DejaVuSans-43" transform="translate(608.642578 0)"/>
       <use xlink:href="#DejaVuSans-2b" transform="translate(678.466797 0)"/>
       <use xlink:href="#DejaVuSans-2b" transform="translate(762.255859 0)"/>
       <use xlink:href="#DejaVuSans-31" transform="translate(846.044922 0)"/>
       <use xlink:href="#DejaVuSans-37" transform="translate(909.667969 0)"/>
      </g>
     </g>
    </g>
    <g id="xtick_6">
     <g id="line2d_6">
      <g>
       <use xlink:href="#mcecd3328ed" x="584.175905" y="360.734002" style="stroke: #000000; stroke-width: 0.8"/>
      </g>
     </g>
     <g id="text_6">
      <!-- benchMany C++20 -->
      <g transform="translate(507.376626 417.456164) rotate(-30) scale(0.09 -0.09)">
       <use xlink:href="#DejaVuSans-62"/>
       <use xlink:href="#DejaVuSans-65" transform="translate(63.476562 0)"/>
       <use xlink:href="#DejaVuSans-6e" transform="translate(125 0)"/>
       <use xlink:href="#DejaVuSans-63" transform="translate(188.378906 0)"/>
       <use xlink:href="#DejaVuSans-68" transform="translate(243.359375 0)"/>
       <use xlink:href="#DejaVuSans-4d" transform="translate(306.738281 0)"/>
       <use xlink:href="#DejaVuSans-61" transform="translate(393.017578 0)"/>
       <use xlink:href="#DejaVuSans-6e" transform="translate(454.296875 0)"/>
       <use xlink:href="#DejaVuSans-79" transform="translate(517.675781 0)"/>
       <use xlink:href="#DejaVuSans-20" transform="translate(576.855469 0)"/>
       <use xlink:href="#DejaVuSans-43" transform="translate(608.642578 0)"/>
       <use xlink:href="#DejaVuSans-2b" transform="translate(678.466797 0)"/>
       <use xlink:href="#DejaVuSans-2b" transform="translate(762.255859 0)"/>
       <use xlink:href="#DejaVuSans-32" transform="translate(846.044922 0)"/>
       <use xlink:href="#DejaVuSans-30" transform="translate(909.667969 0)"/>
      </g>
     </g>
    </g>
    <g id="xtick_7">
     <g id="line2d_7">
      <g>
       <use xlink:href="#mcecd3328ed" x="679.156091" y="360.734002" style="stroke: #000000; stroke-width: 0.8"/>
      </g>
     </g>
     <g id="text_7">
      <!-- ND C++17 -->
      <g transform="translate(635.487155 398.328351) rotate(-30) scale(0.09 -0.09)">
       <defs>
        <path id="DejaVuSans-4e" d="M 628 4666 
L 1478 4666 
L 3547 763 
L 3547 4666 
L 4159 4666 
L 4159 0 
L 3309 0 
L 1241 3903 
L 1241 0 
L 628 0 
L 628 4666 
z
" transform="scale(0.015625)"/>
       </defs>
       <use xlink:href="#DejaVuSans-4e"/>
       <use xlink:href="#DejaVuSans-44" transform="translate(74.804688 0)"/>
       <use xlink:href="#DejaVuSans-20" transform="translate(151.806641 0)"/>
       <use xlink:href="#DejaVuSans-43" transform="translate(183.59375 0)"/>
       <use xlink:href="#DejaVuSans-2b" transform="translate(253.417969 0)"/>
       <use xlink:href="#DejaVuSans-2b" transform="translate(337.207031 0)"/>
       <use xlink:href="#DejaVuSans-31" transform="translate(420.996094 0)"/>
       <use xlink:href="#DejaVuSans-37" transform="translate(484.619141 0)"/>
      </g>
     </g>
    </g>
    <g id="xtick_8">
     <g id="line2d_8">
      <g>
       <use xlink:href="#mcecd3328ed" x="774.136278" y="360.734002" style="stroke: #000000; stroke-width: 0.8"/>
      </g>
     </g>
     <g id="text_8">
      <!-- ND C++20 -->
      <g transform="translate(730.467342 398.328351) rotate(-30) scale(0.09 -0.09)">
       <use xlink:href="#DejaVuSans-4e"/>
       <use xlink:href="#DejaVuSans-44" transform="translate(74.804688 0)"/>
       <use xlink:href="#DejaVuSans-20" transform="translate(151.806641 0)"/>
       <use xlink:href="#DejaVuSans-43" transform="translate(183.59375 0)"/>
       <use xlink:href="#DejaVuSans-2b" transform="translate(253.417969 0)"/>
       <use xlink:href="#DejaVuSans-2b" transform="translate(337.207031 0)"/>
       <use xlink:href="#DejaVuSans-32" transform="translate(420.996094 0)"/>
       <use xlink:href="#DejaVuSans-30" transform="translate(484.619141 0)"/>
      </g>
     </g>
    </g>
   </g>
   <g id="matplotlib.axis_2">
    <g id="ytick_1">
     <g id="line2d_9">
      <path d="M 34.240625 360.734002 
L 849.170625 360.734002 
" clip-path="url(#pef163def0e)" style="fill: none; stroke: #b0b0b0; stroke-opacity: 0.3; stroke-width: 0.8; stroke-linecap: square"/>
     </g>
     <g id="line2d_10">
      <defs>
       <path id="mdb006fde7b" d="M 0 0 
L -3.5 0 
" style="stroke: #000000; stroke-width: 0.8"/>
      </defs>
      <g>
       <use xlink:href="#mdb006fde7b" x="34.240625" y="360.734002" style="stroke: #000000; stroke-width: 0.8"/>
      </g>
     </g>
     <g id="text_9">
      <!-- 0 -->
      <g transform="translate(20.878125 364.533221) scale(0.1 -0.1)">
       <use xlink:href="#DejaVuSans-30"/>
      </g>
     </g>
    </g>
    <g id="ytick_2">
     <g id="line2d_11">
      <path d="M 34.240625 290.800263 
L 849.170625 290.800263 
" clip-path="url(#pef163def0e)" style="fill: none; stroke: #b0b0b0; stroke-opacity: 0.3; stroke-width: 0.8; stroke-linecap: square"/>
     </g>
     <g id="line2d_12">
      <g>
       <use xlink:href="#mdb006fde7b" x="34.240625" y="290.800263" style="stroke: #000000; stroke-width: 0.8"/>
      </g>
     </g>
     <g id="text_10">
      <!-- 2 -->
      <g transform="translate(20.878125 294.599482) scale(0.1 -0.1)">
       <use xlink:href="#DejaVuSans-32"/>
      </g>
     </g>
    </g>
    <g id="ytick_3">
     <g id="line2d_13">
      <path d="M 34.240625 220.866524 
L 849.170625 220.866524 
" clip-path="url(#pef163def0e)" style="fill: none; stroke: #b0b0b0; stroke-opacity: 0.3; stroke-width: 0.8; stroke-linecap: square"/>
     </g>
     <g id="line2d_14">
      <g>
       <use xlink:href="#mdb006fde7b" x="34.240625" y="220.866524" style="stroke: #000000; stroke-width: 0.8"/>
      </g>
     </g>
     <g id="text_11">
      <!-- 4 -->
      <g transform="translate(20.878125 224.665742) scale(0.1 -0.1)">
       <defs>
        <path id="DejaVuSans-34" d="M 2419 4116 
L 825 1625 
L 2419 1625 
L 2419 4116 
z
M 2253 4666 
L 3047 4666 
L 3047 1625 
L 3713 1625 
L 3713 1100 
L 3047 1100 
L 3047 0 
L 2419 0 
L 2419 1100 
L 313 1100 
L 313 1709 
L 2253 4666 
z
" transform="scale(0.015625)"/>
       </defs>
       <use xlink:href="#DejaVuSans-34"/>
      </g>
     </g>
    </g>
    <g id="ytick_4">
     <g id="line2d_15">
      <path d="M 34.240625 150.932784 
L 849.170625 150.932784 
" clip-path="url(#pef163def0e)" style="fill: none; stroke: #b0b0b0; stroke-opacity: 0.3; stroke-width: 0.8; stroke-linecap: square"/>
     </g>
     <g id="line2d_16">
      <g>
       <use xlink:href="#mdb006fde7b" x="34.240625" y="150.932784" style="stroke: #000000; stroke-width: 0.8"/>
      </g>
     </g>
     <g id="text_12">
      <!-- 6 -->
      <g transform="translate(20.878125 154.732003) scale(0.1 -0.1)">
       <defs>
        <path id="DejaVuSans-36" d="M 2113 2584 
Q 1688 2584 1439 2293 
Q 1191 2003 1191 1497 
Q 1191 994 1439 701 
Q 1688 409 2113 409 
Q 2538 409 2786 701 
Q 3034 994 3034 1497 
Q 3034 2003 2786 2293 
Q 2538 2584 2113 2584 
z
M 3366 4563 
L 3366 3988 
Q 3128 4100 2886 4159 
Q 2644 4219 2406 4219 
Q 1781 4219 1451 3797 
Q 1122 3375 1075 2522 
Q 1259 2794 1537 2939 
Q 1816 3084 2150 3084 
Q 2853 3084 3261 2657 
Q 3669 2231 3669 1497 
Q 3669 778 3244 343 
Q 2819 -91 2113 -91 
Q 1303 -91 875 529 
Q 447 1150 447 2328 
Q 447 3434 972 4092 
Q 1497 4750 2381 4750 
Q 2619 4750 2861 4703 
Q 3103 4656 3366 4563 
z
" transform="scale(0.015625)"/>
       </defs>
       <use xlink:href="#DejaVuSans-36"/>
      </g>
     </g>
    </g>
    <g id="ytick_5">
     <g id="line2d_17">
      <path d="M 34.240625 80.999045 
L 849.170625 80.999045 
" clip-path="url(#pef163def0e)" style="fill: none; stroke: #b0b0b0; stroke-opacity: 0.3; stroke-width: 0.8; stroke-linecap: square"/>
     </g>
     <g id="line2d_18">
      <g>
       <use xlink:href="#mdb006fde7b" x="34.240625" y="80.999045" style="stroke: #000000; stroke-width: 0.8"/>
      </g>
     </g>
     <g id="text_13">
      <!-- 8 -->
      <g transform="translate(20.878125 84.798264) scale(0.1 -0.1)">
       <defs>
        <path id="DejaVuSans-38" d="M 2034 2216 
Q 1584 2216 1326 1975 
Q 1069 1734 1069 1313 
Q 1069 891 1326 650 
Q 1584 409 2034 409 
Q 2484 409 2743 651 
Q 3003 894 3003 1313 
Q 3003 1734 2745 1975 
Q 2488 2216 2034 2216 
z
M 1403 2484 
Q 997 2584 770 2862 
Q 544 3141 544 3541 
Q 544 4100 942 4425 
Q 1341 4750 2034 4750 
Q 2731 4750 3128 4425 
Q 3525 4100 3525 3541 
Q 3525 3141 3298 2862 
Q 3072 2584 2669 2484 
Q 3125 2378 3379 2068 
Q 3634 1759 3634 1313 
Q 3634 634 3220 271 
Q 2806 -91 2034 -91 
Q 1263 -91 848 271 
Q 434 634 434 1313 
Q 434 1759 690 2068 
Q 947 2378 1403 2484 
z
M 1172 3481 
Q 1172 3119 1398 2916 
Q 1625 2713 2034 2713 
Q 2441 2713 2670 2916 
Q 2900 3119 2900 3481 
Q 2900 3844 2670 4047 
Q 2441 4250 2034 4250 
Q 1625 4250 1398 4047 
Q 1172 3844 1172 3481 
z
" transform="scale(0.015625)"/>
       </defs>
       <use xlink:href="#DejaVuSans-38"/>
      </g>
     </g>
    </g>
    <g id="text_14">
     <!-- Relative ns/op (ratio to baseline) -->
     <g transform="translate(14.798438 278.530907) rotate(-90) scale(0.1 -0.1)">
      <defs>
       <path id="DejaVuSans-52" d="M 2841 2188 
Q 3044 2119 3236 1894 
Q 3428 1669 3622 1275 
L 4263 0 
L 3584 0 
L 2988 1197 
Q 2756 1666 2539 1819 
Q 2322 1972 1947 1972 
L 1259 1972 
L 1259 0 
L 628 0 
L 628 4666 
L 2053 4666 
Q 2853 4666 3247 4331 
Q 3641 3997 3641 3322 
Q 3641 2881 3436 2590 
Q 3231 2300 2841 2188 
z
M 1259 4147 
L 1259 2491 
L 2053 2491 
Q 2509 2491 2742 2702 
Q 2975 2913 2975 3322 
Q 2975 3731 2742 3939 
Q 2509 4147 2053 4147 
L 1259 4147 
z
" transform="scale(0.015625)"/>
       <path id="DejaVuSans-6c" d="M 603 4863 
L 1178 4863 
L 1178 0 
L 603 0 
L 603 4863 
z
" transform="scale(0.015625)"/>
       <path id="DejaVuSans-74" d="M 1172 4494 
L 1172 3500 
L 2356 3500 
L 2356 3053 
L 1172 3053 
L 1172 1153 
Q 1172 725 1289 603 
Q 1406 481 1766 481 
L 2356 481 
L 2356 0 
L 1766 0 
Q 1100 0 847 248 
Q 594 497 594 1153 
L 594 3053 
L 172 3053 
L 172 3500 
L 594 3500 
L 594 4494 
L 1172 4494 
z
" transform="scale(0.015625)"/>
       <path id="DejaVuSans-69" d="M 603 3500 
L 1178 3500 
L 1178 0 
L 603 0 
L 603 3500 
z
M 603 4863 
L 1178 4863 
L 1178 4134 
L 603 4134 
L 603 4863 
z
" transform="scale(0.015625)"/>
       <path id="DejaVuSans-76" d="M 191 3500 
L 800 3500 
L 1894 563 
L 2988 3500 
L 3597 3500 
L 2284 0 
L 1503 0 
L 191 3500 
z
" transform="scale(0.015625)"/>
       <path id="DejaVuSans-73" d="M 2834 3397 
L 2834 2853 
Q 2591 2978 2328 3040 
Q 2066 3103 1784 3103 
Q 1356 3103 1142 2972 
Q 928 2841 928 2578 
Q 928 2378 1081 2264 
Q 1234 2150 1697 2047 
L 1894 2003 
Q 2506 1872 2764 1633 
Q 3022 1394 3022 966 
Q 3022 478 2636 193 
Q 2250 -91 1575 -91 
Q 1294 -91 989 -36 
Q 684 19 347 128 
L 347 722 
Q 666 556 975 473 
Q 1284 391 1588 391 
Q 1994 391 2212 530 
Q 2431 669 2431 922 
Q 2431 1156 2273 1281 
Q 2116 1406 1581 1522 
L 1381 1569 
Q 847 1681 609 1914 
Q 372 2147 372 2553 
Q 372 3047 722 3315 
Q 1072 3584 1716 3584 
Q 2034 3584 2315 3537 
Q 2597 3491 2834 3397 
z
" transform="scale(0.015625)"/>
       <path id="DejaVuSans-2f" d="M 1625 4666 
L 2156 4666 
L 531 -594 
L 0 -594 
L 1625 4666 
z
" transform="scale(0.015625)"/>
       <path id="DejaVuSans-70" d="M 1159 525 
L 1159 -1331 
L 581 -1331 
L 581 3500 
L 1159 3500 
L 1159 2969 
Q 1341 3281 1617 3432 
Q 1894 3584 2278 3584 
Q 2916 3584 3314 3078 
Q 3713 2572 3713 1747 
Q 3713 922 3314 415 
Q 2916 -91 2278 -91 
Q 1894 -91 1617 61 
Q 1341 213 1159 525 
z
M 3116 1747 
Q 3116 2381 2855 2742 
Q 2594 3103 2138 3103 
Q 1681 3103 1420 2742 
Q 1159 2381 1159 1747 
Q 1159 1113 1420 752 
Q 1681 391 2138 391 
Q 2594 391 2855 752 
Q 3116 1113 3116 1747 
z
" transform="scale(0.015625)"/>
       <path id="DejaVuSans-28" d="M 1984 4856 
Q 1566 4138 1362 3434 
Q 1159 2731 1159 2009 
Q 1159 1288 1364 580 
Q 1569 -128 1984 -844 
L 1484 -844 
Q 1016 -109 783 600 
Q 550 1309 550 2009 
Q 550 2706 781 3412 
Q 1013 4119 1484 4856 
L 1984 4856 
z
" transform="scale(0.015625)"/>
       <path id="DejaVuSans-29" d="M 513 4856 
L 1013 4856 
Q 1481 4119 1714 3412 
Q 1947 2706 1947 2009 
Q 1947 1309 1714 600 
Q 1481 -109 1013 -844 
L 513 -844 
Q 928 -128 1133 580 
Q 1338 1288 1338 2009 
Q 1338 2731 1133 3434 
Q 928 4138 513 4856 
z
" transform="scale(0.015625)"/>
      </defs>
      <use xlink:href="#DejaVuSans-52"/>
      <use xlink:href="#DejaVuSans-65" transform="translate(64.982422 0)"/>
      <use xlink:href="#DejaVuSans-6c" transform="translate(126.505859 0)"/>
      <use xlink:href="#DejaVuSans-61" transform="translate(154.289062 0)"/>
      <use xlink:href="#DejaVuSans-74" transform="translate(215.568359 0)"/>
      <use xlink:href="#DejaVuSans-69" transform="translate(254.777344 0)"/>
      <use xlink:href="#DejaVuSans-76" transform="translate(282.560547 0)"/>
      <use xlink:href="#DejaVuSans-65" transform="translate(341.740234 0)"/>
      <use xlink:href="#DejaVuSans-20" transform="translate(403.263672 0)"/>
      <use xlink:href="#DejaVuSans-6e" transform="translate(435.050781 0)"/>
      <use xlink:href="#DejaVuSans-73" transform="translate(498.429688 0)"/>
      <use xlink:href="#DejaVuSans-2f" transform="translate(550.529297 0)"/>
      <use xlink:href="#DejaVuSans-6f" transform="translate(584.220703 0)"/>
      <use xlink:href="#DejaVuSans-70" transform="translate(645.402344 0)"/>
      <use xlink:href="#DejaVuSans-20" transform="translate(708.878906 0)"/>
      <use xlink:href="#DejaVuSans-28" transform="translate(740.666016 0)"/>
      <use xlink:href="#DejaVuSans-72" transform="translate(779.679688 0)"/>
      <use xlink:href="#DejaVuSans-61" transform="translate(820.792969 0)"/>
      <use xlink:href="#DejaVuSans-74" transform="translate(882.072266 0)"/>
      <use xlink:href="#DejaVuSans-69" transform="translate(921.28125 0)"/>
      <use xlink:href="#DejaVuSans-6f" transform="translate(949.064453 0)"/>
      <use xlink:href="#DejaVuSans-20" transform="translate(1010.246094 0)"/>
      <use xlink:href="#DejaVuSans-74" transform="translate(1042.033203 0)"/>
      <use xlink:href="#DejaVuSans-6f" transform="translate(1081.242188 0)"/>
      <use xlink:href="#DejaVuSans-20" transform="translate(1142.423828 0)"/>
      <use xlink:href="#DejaVuSans-62" transform="translate(1174.210938 0)"/>
      <use xlink:href="#DejaVuSans-61" transform="translate(1237.6875 0)"/>
      <use xlink:href="#DejaVuSans-73" transform="translate(1298.966797 0)"/>
      <use xlink:href="#DejaVuSans-65" transform="translate(1351.066406 0)"/>
      <use xlink:href="#DejaVuSans-6c" transform="translate(1412.589844 0)"/>
      <use xlink:href="#DejaVuSans-69" transform="translate(1440.373047 0)"/>
      <use xlink:href="#DejaVuSans-6e" transform="translate(1468.15625 0)"/>
      <use xlink:href="#DejaVuSans-65" transform="translate(1531.535156 0)"/>
      <use xlink:href="#DejaVuSans-29" transform="translate(1593.058594 0)"/>
     </g>
    </g>
   </g>
   <g id="line2d_19">
    <path d="M 34.240625 325.767133 
L 849.170625 325.767133 
" clip-path="url(#pef163def0e)" style="fill: none; stroke-dasharray: 3.7,1.6; stroke-dashoffset: 0; stroke: #000000; stroke-opacity: 0.5"/>
   </g>
   <g id="patch_27">
    <path d="M 34.240625 360.734002 
L 34.240625 33.12 
" style="fill: none; stroke: #000000; stroke-width: 0.8; stroke-linejoin: miter; stroke-linecap: square"/>
   </g>
   <g id="patch_28">
    <path d="M 849.170625 360.734002 
L 849.170625 33.12 
" style="fill: none; stroke: #000000; stroke-width: 0.8; stroke-linejoin: miter; stroke-linecap: square"/>
   </g>
   <g id="patch_29">
    <path d="M 34.240625 360.734002 
L 849.170625 360.734002 
" style="fill: none; stroke: #000000; stroke-width: 0.8; stroke-linejoin: miter; stroke-linecap: square"/>
   </g>
   <g id="patch_30">
    <path d="M 34.240625 33.12 
L 849.170625 33.12 
" style="fill: none; stroke: #000000; stroke-width: 0.8; stroke-linejoin: miter; stroke-linecap: square"/>
   </g>
   <g id="legend_1">
    <g id="patch_31">
     <path d="M 40.540625 93.16125 
L 147.231406 93.16125 
Q 149.031406 93.16125 149.031406 91.36125 
L 149.031406 39.42 
Q 149.031406 37.62 147.231406 37.62 
L 40.540625 37.62 
Q 38.740625 37.62 38.740625 39.42 
L 38.740625 91.36125 
Q 38.740625 93.16125 40.540625 93.16125 
z
" style="fill: #ffffff; opacity: 0.8; stroke: #cccccc; stroke-linejoin: miter"/>
    </g>
    <g id="line2d_20">
     <path d="M 42.340625 44.908594 
L 51.340625 44.908594 
L 60.340625 44.908594 
" style="fill: none; stroke-dasharray: 3.7,1.6; stroke-dashoffset: 0; stroke: #000000; stroke-opacity: 0.5"/>
    </g>
    <g id="text_15">
     <!-- gcc-14 (baseline) -->
     <g transform="translate(67.540625 48.058594) scale(0.09 -0.09)">
      <defs>
       <path id="DejaVuSans-67" d="M 2906 1791 
Q 2906 2416 2648 2759 
Q 2391 3103 1925 3103 
Q 1463 3103 1205 2759 
Q 947 2416 947 1791 
Q 947 1169 1205 825 
Q 1463 481 1925 481 
Q 2391 481 2648 825 
Q 2906 1169 2906 1791 
z
M 3481 434 
Q 3481 -459 3084 -895 
Q 2688 -1331 1869 -1331 
Q 1566 -1331 1297 -1286 
Q 1028 -1241 775 -1147 
L 775 -588 
Q 1028 -725 1275 -790 
Q 1522 -856 1778 -856 
Q 2344 -856 2625 -561 
Q 2906 -266 2906 331 
L 2906 616 
Q 2728 306 2450 153 
Q 2172 0 1784 0 
Q 1141 0 747 490 
Q 353 981 353 1791 
Q 353 2603 747 3093 
Q 1141 3584 1784 3584 
Q 2172 3584 2450 3431 
Q 2728 3278 2906 2969 
L 2906 3500 
L 3481 3500 
L 3481 434 
z
" transform="scale(0.015625)"/>
       <path id="DejaVuSans-2d" d="M 313 2009 
L 1997 2009 
L 1997 1497 
L 313 1497 
L 313 2009 
z
" transform="scale(0.015625)"/>
      </defs>
      <use xlink:href="#DejaVuSans-67"/>
      <use xlink:href="#DejaVuSans-63" transform="translate(63.476562 0)"/>
      <use xlink:href="#DejaVuSans-63" transform="translate(118.457031 0)"/>
      <use xlink:href="#DejaVuSans-2d" transform="translate(173.4375 0)"/>
      <use xlink:href="#DejaVuSans-31" transform="translate(209.521484 0)"/>
      <use xlink:href="#DejaVuSans-34" transform="translate(273.144531 0)"/>
      <use xlink:href="#DejaVuSans-20" transform="translate(336.767578 0)"/>
      <use xlink:href="#DejaVuSans-28" transform="translate(368.554688 0)"/>
      <use xlink:href="#DejaVuSans-62" transform="translate(407.568359 0)"/>
      <use xlink:href="#DejaVuSans-61" transform="translate(471.044922 0)"/>
      <use xlink:href="#DejaVuSans-73" transform="translate(532.324219 0)"/>
      <use xlink:href="#DejaVuSans-65" transform="translate(584.423828 0)"/>
      <use xlink:href="#DejaVuSans-6c" transform="translate(645.947266 0)"/>
      <use xlink:href="#DejaVuSans-69" transform="translate(673.730469 0)"/>
      <use xlink:href="#DejaVuSans-6e" transform="translate(701.513672 0)"/>
      <use xlink:href="#DejaVuSans-65" transform="translate(764.892578 0)"/>
      <use xlink:href="#DejaVuSans-29" transform="translate(826.416016 0)"/>
     </g>
    </g>
    <g id="patch_32">
     <path d="M 42.340625 61.268906 
L 60.340625 61.268906 
L 60.340625 54.968906 
L 42.340625 54.968906 
z
" style="fill: #2e7d32; opacity: 0.85"/>
    </g>
    <g id="text_16">
     <!-- gcc-15 -->
     <g transform="translate(67.540625 61.268906) scale(0.09 -0.09)">
      <defs>
       <path id="DejaVuSans-35" d="M 691 4666 
L 3169 4666 
L 3169 4134 
L 1269 4134 
L 1269 2991 
Q 1406 3038 1543 3061 
Q 1681 3084 1819 3084 
Q 2600 3084 3056 2656 
Q 3513 2228 3513 1497 
Q 3513 744 3044 326 
Q 2575 -91 1722 -91 
Q 1428 -91 1123 -41 
Q 819 9 494 109 
L 494 744 
Q 775 591 1075 516 
Q 1375 441 1709 441 
Q 2250 441 2565 725 
Q 2881 1009 2881 1497 
Q 2881 1984 2565 2268 
Q 2250 2553 1709 2553 
Q 1456 2553 1204 2497 
Q 953 2441 691 2322 
L 691 4666 
z
" transform="scale(0.015625)"/>
      </defs>
      <use xlink:href="#DejaVuSans-67"/>
      <use xlink:href="#DejaVuSans-63" transform="translate(63.476562 0)"/>
      <use xlink:href="#DejaVuSans-63" transform="translate(118.457031 0)"/>
      <use xlink:href="#DejaVuSans-2d" transform="translate(173.4375 0)"/>
      <use xlink:href="#DejaVuSans-31" transform="translate(209.521484 0)"/>
      <use xlink:href="#DejaVuSans-35" transform="translate(273.144531 0)"/>
     </g>
    </g>
    <g id="patch_33">
     <path d="M 42.340625 74.479219 
L 60.340625 74.479219 
L 60.340625 68.179219 
L 42.340625 68.179219 
z
" style="fill: #2196f3; opacity: 0.85"/>
    </g>
    <g id="text_17">
     <!-- llvm-20 -->
     <g transform="translate(67.540625 74.479219) scale(0.09 -0.09)">
      <defs>
       <path id="DejaVuSans-6d" d="M 3328 2828 
Q 3544 3216 3844 3400 
Q 4144 3584 4550 3584 
Q 5097 3584 5394 3201 
Q 5691 2819 5691 2113 
L 5691 0 
L 5113 0 
L 5113 2094 
Q 5113 2597 4934 2840 
Q 4756 3084 4391 3084 
Q 3944 3084 3684 2787 
Q 3425 2491 3425 1978 
L 3425 0 
L 2847 0 
L 2847 2094 
Q 2847 2600 2669 2842 
Q 2491 3084 2119 3084 
Q 1678 3084 1418 2786 
Q 1159 2488 1159 1978 
L 1159 0 
L 581 0 
L 581 3500 
L 1159 3500 
L 1159 2956 
Q 1356 3278 1631 3431 
Q 1906 3584 2284 3584 
Q 2666 3584 2933 3390 
Q 3200 3197 3328 2828 
z
" transform="scale(0.015625)"/>
      </defs>
      <use xlink:href="#DejaVuSans-6c"/>
      <use xlink:href="#DejaVuSans-6c" transform="translate(27.783203 0)"/>
      <use xlink:href="#DejaVuSans-76" transform="translate(55.566406 0)"/>
      <use xlink:href="#DejaVuSans-6d" transform="translate(114.746094 0)"/>
      <use xlink:href="#DejaVuSans-2d" transform="translate(212.158203 0)"/>
      <use xlink:href="#DejaVuSans-32" transform="translate(248.242188 0)"/>
      <use xlink:href="#DejaVuSans-30" transform="translate(311.865234 0)"/>
     </g>
    </g>
    <g id="patch_34">
     <path d="M 42.340625 87.689531 
L 60.340625 87.689531 
L 60.340625 81.389531 
L 42.340625 81.389531 
z
" style="fill: #0d47a1; opacity: 0.85"/>
    </g>
    <g id="text_18">
     <!-- llvm-21 -->
     <g transform="translate(67.540625 87.689531) scale(0.09 -0.09)">
      <use xlink:href="#DejaVuSans-6c"/>
      <use xlink:href="#DejaVuSans-6c" transform="translate(27.783203 0)"/>
      <use xlink:href="#DejaVuSans-76" transform="translate(55.566406 0)"/>
      <use xlink:href="#DejaVuSans-6d" transform="translate(114.746094 0)"/>
      <use xlink:href="#DejaVuSans-2d" transform="translate(212.158203 0)"/>
      <use xlink:href="#DejaVuSans-32" transform="translate(248.242188 0)"/>
      <use xlink:href="#DejaVuSans-31" transform="translate(311.865234 0)"/>
     </g>
    </g>
   </g>
  </g>
  <g id="text_19">
   <!-- Relative Performance vs gcc-14 (lower = faster) -->
   <g transform="translate(251.745469 17.077969) scale(0.13 -0.13)">
    <defs>
     <path id="DejaVuSans-Bold-52" d="M 2297 2597 
Q 2675 2597 2839 2737 
Q 3003 2878 3003 3200 
Q 3003 3519 2839 3656 
Q 2675 3794 2297 3794 
L 1791 3794 
L 1791 2597 
L 2297 2597 
z
M 1791 1766 
L 1791 0 
L 588 0 
L 588 4666 
L 2425 4666 
Q 3347 4666 3776 4356 
Q 4206 4047 4206 3378 
Q 4206 2916 3982 2619 
Q 3759 2322 3309 2181 
Q 3556 2125 3751 1926 
Q 3947 1728 4147 1325 
L 4800 0 
L 3519 0 
L 2950 1159 
Q 2778 1509 2601 1637 
Q 2425 1766 2131 1766 
L 1791 1766 
z
" transform="scale(0.015625)"/>
     <path id="DejaVuSans-Bold-65" d="M 4031 1759 
L 4031 1441 
L 1416 1441 
Q 1456 1047 1700 850 
Q 1944 653 2381 653 
Q 2734 653 3104 758 
Q 3475 863 3866 1075 
L 3866 213 
Q 3469 63 3072 -14 
Q 2675 -91 2278 -91 
Q 1328 -91 801 392 
Q 275 875 275 1747 
Q 275 2603 792 3093 
Q 1309 3584 2216 3584 
Q 3041 3584 3536 3087 
Q 4031 2591 4031 1759 
z
M 2881 2131 
Q 2881 2450 2695 2645 
Q 2509 2841 2209 2841 
Q 1884 2841 1681 2658 
Q 1478 2475 1428 2131 
L 2881 2131 
z
" transform="scale(0.015625)"/>
     <path id="DejaVuSans-Bold-6c" d="M 538 4863 
L 1656 4863 
L 1656 0 
L 538 0 
L 538 4863 
z
" transform="scale(0.015625)"/>
     <path id="DejaVuSans-Bold-61" d="M 2106 1575 
Q 1756 1575 1579 1456 
Q 1403 1338 1403 1106 
Q 1403 894 1545 773 
Q 1688 653 1941 653 
Q 2256 653 2472 879 
Q 2688 1106 2688 1447 
L 2688 1575 
L 2106 1575 
z
M 3816 1997 
L 3816 0 
L 2688 0 
L 2688 519 
Q 2463 200 2181 54 
Q 1900 -91 1497 -91 
Q 953 -91 614 226 
Q 275 544 275 1050 
Q 275 1666 698 1953 
Q 1122 2241 2028 2241 
L 2688 2241 
L 2688 2328 
Q 2688 2594 2478 2717 
Q 2269 2841 1825 2841 
Q 1466 2841 1156 2769 
Q 847 2697 581 2553 
L 581 3406 
Q 941 3494 1303 3539 
Q 1666 3584 2028 3584 
Q 2975 3584 3395 3211 
Q 3816 2838 3816 1997 
z
" transform="scale(0.015625)"/>
     <path id="DejaVuSans-Bold-74" d="M 1759 4494 
L 1759 3500 
L 2913 3500 
L 2913 2700 
L 1759 2700 
L 1759 1216 
Q 1759 972 1856 886 
Q 1953 800 2241 800 
L 2816 800 
L 2816 0 
L 1856 0 
Q 1194 0 917 276 
Q 641 553 641 1216 
L 641 2700 
L 84 2700 
L 84 3500 
L 641 3500 
L 641 4494 
L 1759 4494 
z
" transform="scale(0.015625)"/>
     <path id="DejaVuSans-Bold-69" d="M 538 3500 
L 1656 3500 
L 1656 0 
L 538 0 
L 538 3500 
z
M 538 4863 
L 1656 4863 
L 1656 3950 
L 538 3950 
L 538 4863 
z
" transform="scale(0.015625)"/>
     <path id="DejaVuSans-Bold-76" d="M 97 3500 
L 1216 3500 
L 2088 1081 
L 2956 3500 
L 4078 3500 
L 2700 0 
L 1472 0 
L 97 3500 
z
" transform="scale(0.015625)"/>
     <path id="DejaVuSans-Bold-20" transform="scale(0.015625)"/>
     <path id="DejaVuSans-Bold-50" d="M 588 4666 
L 2584 4666 
Q 3475 4666 3951 4270 
Q 4428 3875 4428 3144 
Q 4428 2409 3951 2014 
Q 3475 1619 2584 1619 
L 1791 1619 
L 1791 0 
L 588 0 
L 588 4666 
z
M 1791 3794 
L 1791 2491 
L 2456 2491 
Q 2806 2491 2997 2661 
Q 3188 2831 3188 3144 
Q 3188 3456 2997 3625 
Q 2806 3794 2456 3794 
L 1791 3794 
z
" transform="scale(0.015625)"/>
     <path id="DejaVuSans-Bold-72" d="M 3138 2547 
Q 2991 2616 2845 2648 
Q 2700 2681 2553 2681 
Q 2122 2681 1889 2404 
Q 1656 2128 1656 1613 
L 1656 0 
L 538 0 
L 538 3500 
L 1656 3500 
L 1656 2925 
Q 1872 3269 2151 3426 
Q 2431 3584 2822 3584 
Q 2878 3584 2943 3579 
Q 3009 3575 3134 3559 
L 3138 2547 
z
" transform="scale(0.015625)"/>
     <path id="DejaVuSans-Bold-66" d="M 2841 4863 
L 2841 4128 
L 2222 4128 
Q 1984 4128 1890 4042 
Q 1797 3956 1797 3744 
L 1797 3500 
L 2753 3500 
L 2753 2700 
L 1797 2700 
L 1797 0 
L 678 0 
L 678 2700 
L 122 2700 
L 122 3500 
L 678 3500 
L 678 3744 
Q 678 4316 997 4589 
Q 1316 4863 1984 4863 
L 2841 4863 
z
" transform="scale(0.015625)"/>
     <path id="DejaVuSans-Bold-6f" d="M 2203 2784 
Q 1831 2784 1636 2517 
Q 1441 2250 1441 1747 
Q 1441 1244 1636 976 
Q 1831 709 2203 709 
Q 2569 709 2762 976 
Q 2956 1244 2956 1747 
Q 2956 2250 2762 2517 
Q 2569 2784 2203 2784 
z
M 2203 3584 
Q 3106 3584 3614 3096 
Q 4122 2609 4122 1747 
Q 4122 884 3614 396 
Q 3106 -91 2203 -91 
Q 1297 -91 786 396 
Q 275 884 275 1747 
Q 275 2609 786 3096 
Q 1297 3584 2203 3584 
z
" transform="scale(0.015625)"/>
     <path id="DejaVuSans-Bold-6d" d="M 3781 2919 
Q 3994 3244 4286 3414 
Q 4578 3584 4928 3584 
Q 5531 3584 5847 3212 
Q 6163 2841 6163 2131 
L 6163 0 
L 5038 0 
L 5038 1825 
Q 5041 1866 5042 1909 
Q 5044 1953 5044 2034 
Q 5044 2406 4934 2573 
Q 4825 2741 4581 2741 
Q 4263 2741 4089 2478 
Q 3916 2216 3909 1719 
L 3909 0 
L 2784 0 
L 2784 1825 
Q 2784 2406 2684 2573 
Q 2584 2741 2328 2741 
Q 2006 2741 1831 2477 
Q 1656 2213 1656 1722 
L 1656 0 
L 531 0 
L 531 3500 
L 1656 3500 
L 1656 2988 
Q 1863 3284 2130 3434 
Q 2397 3584 2719 3584 
Q 3081 3584 3359 3409 
Q 3638 3234 3781 2919 
z
" transform="scale(0.015625)"/>
     <path id="DejaVuSans-Bold-6e" d="M 4056 2131 
L 4056 0 
L 2931 0 
L 2931 347 
L 2931 1631 
Q 2931 2084 2911 2256 
Q 2891 2428 2841 2509 
Q 2775 2619 2662 2680 
Q 2550 2741 2406 2741 
Q 2056 2741 1856 2470 
Q 1656 2200 1656 1722 
L 1656 0 
L 538 0 
L 538 3500 
L 1656 3500 
L 1656 2988 
Q 1909 3294 2193 3439 
Q 2478 3584 2822 3584 
Q 3428 3584 3742 3212 
Q 4056 2841 4056 2131 
z
" transform="scale(0.015625)"/>
     <path id="DejaVuSans-Bold-63" d="M 3366 3391 
L 3366 2478 
Q 3138 2634 2908 2709 
Q 2678 2784 2431 2784 
Q 1963 2784 1702 2511 
Q 1441 2238 1441 1747 
Q 1441 1256 1702 982 
Q 1963 709 2431 709 
Q 2694 709 2930 787 
Q 3166 866 3366 1019 
L 3366 103 
Q 3103 6 2833 -42 
Q 2563 -91 2291 -91 
Q 1344 -91 809 395 
Q 275 881 275 1747 
Q 275 2613 809 3098 
Q 1344 3584 2291 3584 
Q 2566 3584 2833 3536 
Q 3100 3488 3366 3391 
z
" transform="scale(0.015625)"/>
     <path id="DejaVuSans-Bold-73" d="M 3272 3391 
L 3272 2541 
Q 2913 2691 2578 2766 
Q 2244 2841 1947 2841 
Q 1628 2841 1473 2761 
Q 1319 2681 1319 2516 
Q 1319 2381 1436 2309 
Q 1553 2238 1856 2203 
L 2053 2175 
Q 2913 2066 3209 1816 
Q 3506 1566 3506 1031 
Q 3506 472 3093 190 
Q 2681 -91 1863 -91 
Q 1516 -91 1145 -36 
Q 775 19 384 128 
L 384 978 
Q 719 816 1070 734 
Q 1422 653 1784 653 
Q 2113 653 2278 743 
Q 2444 834 2444 1013 
Q 2444 1163 2330 1236 
Q 2216 1309 1875 1350 
L 1678 1375 
Q 931 1469 631 1722 
Q 331 1975 331 2491 
Q 331 3047 712 3315 
Q 1094 3584 1881 3584 
Q 2191 3584 2531 3537 
Q 2872 3491 3272 3391 
z
" transform="scale(0.015625)"/>
     <path id="DejaVuSans-Bold-67" d="M 2919 594 
Q 2688 288 2409 144 
Q 2131 0 1766 0 
Q 1125 0 706 504 
Q 288 1009 288 1791 
Q 288 2575 706 3076 
Q 1125 3578 1766 3578 
Q 2131 3578 2409 3434 
Q 2688 3291 2919 2981 
L 2919 3500 
L 4044 3500 
L 4044 353 
Q 4044 -491 3511 -936 
Q 2978 -1381 1966 -1381 
Q 1638 -1381 1331 -1331 
Q 1025 -1281 716 -1178 
L 716 -306 
Q 1009 -475 1290 -558 
Q 1572 -641 1856 -641 
Q 2406 -641 2662 -400 
Q 2919 -159 2919 353 
L 2919 594 
z
M 2181 2772 
Q 1834 2772 1640 2515 
Q 1447 2259 1447 1791 
Q 1447 1309 1634 1061 
Q 1822 813 2181 813 
Q 2531 813 2725 1069 
Q 2919 1325 2919 1791 
Q 2919 2259 2725 2515 
Q 2531 2772 2181 2772 
z
" transform="scale(0.015625)"/>
     <path id="DejaVuSans-Bold-2d" d="M 347 2297 
L 2309 2297 
L 2309 1388 
L 347 1388 
L 347 2297 
z
" transform="scale(0.015625)"/>
     <path id="DejaVuSans-Bold-31" d="M 750 831 
L 1813 831 
L 1813 3847 
L 722 3622 
L 722 4441 
L 1806 4666 
L 2950 4666 
L 2950 831 
L 4013 831 
L 4013 0 
L 750 0 
L 750 831 
z
" transform="scale(0.015625)"/>
     <path id="DejaVuSans-Bold-34" d="M 2356 3675 
L 1038 1722 
L 2356 1722 
L 2356 3675 
z
M 2156 4666 
L 3494 4666 
L 3494 1722 
L 4159 1722 
L 4159 850 
L 3494 850 
L 3494 0 
L 2356 0 
L 2356 850 
L 288 850 
L 288 1881 
L 2156 4666 
z
" transform="scale(0.015625)"/>
     <path id="DejaVuSans-Bold-28" d="M 2413 -844 
L 1484 -844 
Q 1006 -72 778 623 
Q 550 1319 550 2003 
Q 550 2688 779 3389 
Q 1009 4091 1484 4856 
L 2413 4856 
Q 2013 4116 1813 3408 
Q 1613 2700 1613 2009 
Q 1613 1319 1811 609 
Q 2009 -100 2413 -844 
z
" transform="scale(0.015625)"/>
     <path id="DejaVuSans-Bold-77" d="M 225 3500 
L 1313 3500 
L 1900 1088 
L 2491 3500 
L 3425 3500 
L 4013 1113 
L 4603 3500 
L 5691 3500 
L 4769 0 
L 3547 0 
L 2956 2406 
L 2369 0 
L 1147 0 
L 225 3500 
z
" transform="scale(0.015625)"/>
     <path id="DejaVuSans-Bold-3d" d="M 678 3084 
L 4684 3084 
L 4684 2350 
L 678 2350 
L 678 3084 
z
M 678 1663 
L 4684 1663 
L 4684 922 
L 678 922 
L 678 1663 
z
" transform="scale(0.015625)"/>
     <path id="DejaVuSans-Bold-29" d="M 513 -844 
Q 913 -100 1113 609 
Q 1313 1319 1313 2009 
Q 1313 2700 1113 3408 
Q 913 4116 513 4856 
L 1441 4856 
Q 1916 4091 2145 3389 
Q 2375 2688 2375 2003 
Q 2375 1319 2147 623 
Q 1919 -72 1441 -844 
L 513 -844 
z
" transform="scale(0.015625)"/>
    </defs>
    <use xlink:href="#DejaVuSans-Bold-52"/>
    <use xlink:href="#DejaVuSans-Bold-65" transform="translate(77.001953 0)"/>
    <use xlink:href="#DejaVuSans-Bold-6c" transform="translate(144.824219 0)"/>
    <use xlink:href="#DejaVuSans-Bold-61" transform="translate(179.101562 0)"/>
    <use xlink:href="#DejaVuSans-Bold-74" transform="translate(246.582031 0)"/>
    <use xlink:href="#DejaVuSans-Bold-69" transform="translate(294.384766 0)"/>
    <use xlink:href="#DejaVuSans-Bold-76" transform="translate(328.662109 0)"/>
    <use xlink:href="#DejaVuSans-Bold-65" transform="translate(393.847656 0)"/>
    <use xlink:href="#DejaVuSans-Bold-20" transform="translate(461.669922 0)"/>
    <use xlink:href="#DejaVuSans-Bold-50" transform="translate(496.484375 0)"/>
    <use xlink:href="#DejaVuSans-Bold-65" transform="translate(569.775391 0)"/>
    <use xlink:href="#DejaVuSans-Bold-72" transform="translate(637.597656 0)"/>
    <use xlink:href="#DejaVuSans-Bold-66" transform="translate(686.914062 0)"/>
    <use xlink:href="#DejaVuSans-Bold-6f" transform="translate(730.419922 0)"/>
    <use xlink:href="#DejaVuSans-Bold-72" transform="translate(799.121094 0)"/>
    <use xlink:href="#DejaVuSans-Bold-6d" transform="translate(848.4375 0)"/>
    <use xlink:href="#DejaVuSans-Bold-61" transform="translate(952.636719 0)"/>
    <use xlink:href="#DejaVuSans-Bold-6e" transform="translate(1020.117188 0)"/>
    <use xlink:href="#DejaVuSans-Bold-63" transform="translate(1091.308594 0)"/>
    <use xlink:href="#DejaVuSans-Bold-65" transform="translate(1150.585938 0)"/>
    <use xlink:href="#DejaVuSans-Bold-20" transform="translate(1218.408203 0)"/>
    <use xlink:href="#DejaVuSans-Bold-76" transform="translate(1253.222656 0)"/>
    <use xlink:href="#DejaVuSans-Bold-73" transform="translate(1318.408203 0)"/>
    <use xlink:href="#DejaVuSans-Bold-20" transform="translate(1377.929688 0)"/>
    <use xlink:href="#DejaVuSans-Bold-67" transform="translate(1412.744141 0)"/>
    <use xlink:href="#DejaVuSans-Bold-63" transform="translate(1484.326172 0)"/>
    <use xlink:href="#DejaVuSans-Bold-63" transform="translate(1543.603516 0)"/>
    <use xlink:href="#DejaVuSans-Bold-2d" transform="translate(1602.880859 0)"/>
    <use xlink:href="#DejaVuSans-Bold-31" transform="translate(1644.384766 0)"/>
    <use xlink:href="#DejaVuSans-Bold-34" transform="translate(1713.964844 0)"/>
    <use xlink:href="#DejaVuSans-Bold-20" transform="translate(1783.544922 0)"/>
    <use xlink:href="#DejaVuSans-Bold-28" transform="translate(1818.359375 0)"/>
    <use xlink:href="#DejaVuSans-Bold-6c" transform="translate(1864.0625 0)"/>
    <use xlink:href="#DejaVuSans-Bold-6f" transform="translate(1898.339844 0)"/>
    <use xlink:href="#DejaVuSans-Bold-77" transform="translate(1967.041016 0)"/>
    <use xlink:href="#DejaVuSans-Bold-65" transform="translate(2059.423828 0)"/>
    <use xlink:href="#DejaVuSans-Bold-72" transform="translate(2127.246094 0)"/>
    <use xlink:href="#DejaVuSans-Bold-20" transform="translate(2176.5625 0)"/>
    <use xlink:href="#DejaVuSans-Bold-3d" transform="translate(2211.376953 0)"/>
    <use xlink:href="#DejaVuSans-Bold-20" transform="translate(2295.166016 0)"/>
    <use xlink:href="#DejaVuSans-Bold-66" transform="translate(2329.980469 0)"/>
    <use xlink:href="#DejaVuSans-Bold-61" transform="translate(2373.486328 0)"/>
    <use xlink:href="#DejaVuSans-Bold-73" transform="translate(2440.966797 0)"/>
    <use xlink:href="#DejaVuSans-Bold-74" transform="translate(2500.488281 0)"/>
    <use xlink:href="#DejaVuSans-Bold-65" transform="translate(2548.291016 0)"/>
    <use xlink:href="#DejaVuSans-Bold-72" transform="translate(2616.113281 0)"/>
    <use xlink:href="#DejaVuSans-Bold-29" transform="translate(2665.429688 0)"/>
   </g>
  </g>
 </g>
 <defs>
  <clipPath id="pef163def0e">
   <rect x="34.240625" y="33.12" width="814.93" height="327.614002"/>
  </clipPath>
 </defs>
</svg>
